<?xml version="1.0" standalone="no"?>
<!DOCTYPE svg PUBLIC "-//W3C//DTD SVG 20010904//EN"
 "http://www.w3.org/TR/2001/REC-SVG-20010904/DTD/svg10.dtd">
<svg version="1.0" xmlns="http://www.w3.org/2000/svg"
 width="273.000000pt" height="273.000000pt" viewBox="0 0 273.000000 273.000000"
 preserveAspectRatio="xMidYMid meet">
<metadata>
Created by potrace 1.11, written by Peter Selinger 2001-2013
</metadata>
<g transform="translate(0.000000,273.000000) scale(0.100000,-0.100000)"
fill="#000000" stroke="none">
<path d="M1190 2719 c-25 -4 -63 -10 -85 -14 -22 -3 -85 -20 -140 -36 -501
-153 -864 -574 -949 -1101 -19 -111 -14 -358 9 -463 36 -169 93 -313 178 -455
22 -36 42 -67 46 -70 3 -3 18 -23 33 -45 15 -22 56 -69 91 -105 224 -231 467
-359 787 -416 71 -12 326 -12 405 1 214 35 388 102 558 217 305 205 502 501
582 873 26 119 28 352 5 486 -36 207 -137 445 -252 594 -218 282 -521 465
-878 530 -53 10 -339 13 -390 4z"/>
</g>
</svg>
